<svg width="303" height="138" viewBox="0 0 303 138" fill="none" xmlns="http://www.w3.org/2000/svg">
    <path fill-rule="evenodd" clip-rule="evenodd" d="M10 0C4.47715 0 0 4.47715 0 10V62.6535C0.0701524 62.6948 0.137473 62.746 0.200476 62.8079L5.27287 67.7864C5.67224 68.1784 5.67224 68.8218 5.27287 69.2137L0.200473 74.1923C0.137471 74.2541 0.0701516 74.3053 0 74.3466V128C0 133.523 4.47716 138 10 138H293C298.523 138 303 133.521 303 127.998V74.3466C302.93 74.3053 302.863 74.2541 302.8 74.1923L297.727 69.2137C297.328 68.8218 297.328 68.1784 297.727 67.7864L302.8 62.8079C302.863 62.746 302.93 62.6948 303 62.6535V10.0019C303 4.4791 298.523 0 293 0H10Z" fill="white"/>
    <g clip-path="url(#clip0_20756_1935)">
        <mask id="mask0_20756_1935" style="mask-type:alpha" maskUnits="userSpaceOnUse" x="0" y="0" width="303" height="138">
            <path fill-rule="evenodd" clip-rule="evenodd" d="M10 0C4.47715 0 0 4.47715 0 10V62.6535C0.070152 62.6948 0.137472 62.746 0.200474 62.8079L5.27287 67.7864C5.67224 68.1784 5.67223 68.8218 5.27286 69.2137L0.200472 74.1923C0.13747 74.2541 0.0701511 74.3053 0 74.3466V128C0 133.523 4.47716 138 10 138H293C298.523 138 303 133.521 303 127.998V74.3466C302.93 74.3053 302.863 74.2541 302.8 74.1923L297.727 69.2137C297.328 68.8218 297.328 68.1784 297.727 67.7864L302.8 62.8079C302.863 62.746 302.93 62.6948 303 62.6535V10.0019C303 4.4791 298.523 0 293 0H10Z" fill="white"/>
        </mask>
        <g mask="url(#mask0_20756_1935)">
            <path fill-rule="evenodd" clip-rule="evenodd" d="M-0.207031 0.455124L100.793 46.4551L124.406 57.2095C124.537 56.9026 124.673 56.5984 124.815 56.2969L101.207 45.5451L0.20745 -0.454933L-0.207031 0.455124ZM179.007 55.9226C179.153 56.2222 179.293 56.5245 179.429 56.8296L202.207 46.4551L303.207 0.455124L302.793 -0.454933L201.793 45.5451L179.007 55.9226ZM179.429 81.1706C179.293 81.4757 179.153 81.778 179.007 82.0776L201.793 92.4551L302.793 138.455L303.207 137.545L202.207 91.5451L179.429 81.1706ZM124.815 81.7033C124.673 81.4018 124.537 81.0975 124.406 80.7907L100.793 91.5451L-0.207031 137.545L0.20745 138.455L101.207 92.4551L124.815 81.7033Z" fill="#1390E5" fill-opacity="0.2"/>
        </g>
        <g clip-path="url(#clip1_20756_1935)">
            <mask id="mask1_20756_1935" style="mask-type:alpha" maskUnits="userSpaceOnUse" x="132" y="49" width="40" height="40">
                <circle cx="152" cy="69" r="20" fill="#C4C4C4"/>
            </mask>
            <g mask="url(#mask1_20756_1935)">
                <path d="M142.5 75.5C142.5 76.6046 143.395 77.5 144.5 77.5H146.5V60.5H144.5C143.395 60.5 142.5 61.3954 142.5 62.5V75.5Z" fill="#1390E5" fill-opacity="0.2"/>
                <path d="M161.5 62.5C161.5 61.3954 160.605 60.5 159.5 60.5H157.5V77.5H159.5C160.605 77.5 161.5 76.6046 161.5 75.5V62.5Z" fill="#1390E5" fill-opacity="0.2"/>
                <path fill-rule="evenodd" clip-rule="evenodd" d="M144.5 61C143.672 61 143 61.6716 143 62.5V64H146V61H144.5ZM147 61V68.5H157V61H147ZM158 61V64H161V62.5C161 61.6716 160.328 61 159.5 61H158ZM161 65H158V68.5H161V65ZM161 69.5H158V73H161V69.5ZM161 74H158V77H159.5C160.328 77 161 76.3284 161 75.5V74ZM157 77V69.5H147V77H157ZM146 77V74H143V75.5C143 76.3284 143.672 77 144.5 77H146ZM143 73H146V69.5H143V73ZM143 68.5H146V65H143V68.5ZM142 62.5C142 61.1193 143.119 60 144.5 60H159.5C160.881 60 162 61.1193 162 62.5V75.5C162 76.8807 160.881 78 159.5 78H144.5C143.119 78 142 76.8807 142 75.5V62.5Z" fill="#1390E5"/>
            </g>
        </g>
    </g>
    <mask id="path-7-inside-1_20756_1935" fill="white">
        <path fill-rule="evenodd" clip-rule="evenodd" d="M0 10C0 4.47717 4.47715 0 10 0H293C298.523 0 303 4.47934 303 10.0022V63.3504C302.938 63.3867 302.879 63.4307 302.822 63.4828L297.797 68.116C297.368 68.5121 297.368 69.1904 297.797 69.5864L302.822 74.2196C302.879 74.2717 302.938 74.3157 303 74.352V127.702C303 133.225 298.523 137.704 293 137.704H10C4.47716 137.704 0 133.227 0 127.704V74.352C0.0617231 74.3157 0.121344 74.2717 0.177878 74.2196L5.20269 69.5864C5.63218 69.1904 5.63218 68.5121 5.20269 68.116L0.177878 63.4828C0.121344 63.4307 0.0617231 63.3867 0 63.3504V10Z"/>
    </mask>
    <path d="M303 63.3504L303.507 64.2126L304 63.9226V63.3504H303ZM302.822 63.4828L302.144 62.7476L302.144 62.7477L302.822 63.4828ZM297.797 68.116L297.119 67.3809L297.119 67.3809L297.797 68.116ZM297.797 69.5864L297.119 70.3215L297.119 70.3216L297.797 69.5864ZM302.822 74.2196L302.144 74.9547L302.144 74.9548L302.822 74.2196ZM303 74.352H304V73.7798L303.507 73.4899L303 74.352ZM0 74.352L-0.506789 73.4899L-1 73.7799V74.352H0ZM0.177878 74.2196L-0.499999 73.4844L-0.500024 73.4844L0.177878 74.2196ZM5.20269 69.5864L4.52481 68.8512L4.52481 68.8512L5.20269 69.5864ZM5.20269 68.116L4.52481 68.8512L4.52481 68.8512L5.20269 68.116ZM0.177878 63.4828L0.855756 62.7477L0.855754 62.7477L0.177878 63.4828ZM0 63.3504H-1V63.9226L-0.506789 64.2125L0 63.3504ZM10 -1C3.92487 -1 -1 3.92488 -1 10H1C1 5.02945 5.02944 1 10 1V-1ZM293 -1H10V1H293V-1ZM304 10.0022C304 3.92734 299.075 -1 293 -1V1C297.97 1 302 5.03134 302 10.0022H304ZM304 63.3504V10.0022H302V63.3504H304ZM303.5 64.2181C303.505 64.2135 303.507 64.2122 303.507 64.2126L302.493 62.4883C302.369 62.5612 302.252 62.6479 302.144 62.7476L303.5 64.2181ZM298.475 68.8512L303.5 64.218L302.144 62.7477L297.119 67.3809L298.475 68.8512ZM298.475 68.8512V68.8512L297.119 67.3809C296.26 68.1729 296.26 69.5295 297.119 70.3215L298.475 68.8512ZM303.5 73.4844L298.475 68.8512L297.119 70.3216L302.144 74.9547L303.5 73.4844ZM303.507 73.4899C303.507 73.4902 303.505 73.4889 303.5 73.4843L302.144 74.9548C302.252 75.0545 302.369 75.1412 302.493 75.2141L303.507 73.4899ZM304 127.702V74.352H302V127.702H304ZM293 138.704C299.075 138.704 304 133.777 304 127.702H302C302 132.673 297.97 136.704 293 136.704V138.704ZM10 138.704H293V136.704H10V138.704ZM-1 127.704C-1 133.779 3.92488 138.704 10 138.704V136.704C5.02945 136.704 1 132.675 1 127.704H-1ZM-1 74.352V127.704H1V74.352H-1ZM-0.500024 73.4844C-0.504809 73.4888 -0.507167 73.4901 -0.506789 73.4899L0.506789 75.214C0.630613 75.1413 0.747497 75.0546 0.855781 74.9547L-0.500024 73.4844ZM4.52481 68.8512L-0.499999 73.4844L0.855756 74.9547L5.88057 70.3216L4.52481 68.8512ZM4.52481 68.8512L4.52481 68.8512L5.88056 70.3216C6.73956 69.5295 6.73956 68.1729 5.88056 67.3809L4.52481 68.8512ZM-0.499999 64.218L4.52481 68.8512L5.88057 67.3809L0.855756 62.7477L-0.499999 64.218ZM-0.506789 64.2125C-0.507189 64.2123 -0.504818 64.2136 -0.499997 64.218L0.855754 62.7477C0.747506 62.6479 0.630636 62.5612 0.506789 62.4884L-0.506789 64.2125ZM-1 10V63.3504H1V10H-1Z" fill="#35A2EC" mask="url(#path-7-inside-1_20756_1935)"/>
    <defs>
        <clipPath id="clip0_20756_1935">
            <rect width="303" height="138" fill="white"/>
        </clipPath>
        <clipPath id="clip1_20756_1935">
            <rect width="40" height="40" fill="white" transform="translate(132 49)"/>
        </clipPath>
    </defs>
</svg>
